<?xml version="1.0" encoding="UTF-8"?>
<svg id="Capa_1" xmlns="http://www.w3.org/2000/svg" version="1.1" viewBox="0 0 500.8 50.8">
  <!-- Generator: Adobe Illustrator 29.0.0, SVG Export Plug-In . SVG Version: 2.1.0 Build 186)  -->
  <defs>
    <style>
      .st0, .st1 {
        fill: #333;
      }

      .st1 {
        font-family: ApercuMovistarPlus-Black, 'Apercu Movistar Plus';
        font-size: 45px;
        font-weight: 800;
      }
    </style>
  </defs>
  <g>
    <path class="st0" d="M440.8,11.3c-1.9,0-5.5,1-7.1,7.6-.7,2.9-1,5.9-.4,9.4.6,3.3,1.5,6.1,2.2,7.7.2.5.6,1.1.9,1.4.8,1,2.1.9,2.6.7.6-.3,1.3-1,1-2.6-.1-.8-.5-1.9-.7-2.6-.6-2-1.4-4.3-1.5-6,0-2.3.8-2.6,1.4-2.7,1-.2,1.8.9,2.6,2.2.9,1.6,2.6,4.5,3.9,6.7,1.2,2,3.4,4.1,6.9,4,3.6-.2,6.3-1.5,7.6-5.9,1-3.2,1.7-5.7,2.8-8.1,1.3-2.9,3-4.4,4.5-3.9,1.3.4,1.7,1.7,1.7,3.7,0,1.7-.2,3.6-.3,5,0,.5-.2,1.5-.1,2.1,0,1.1.6,2.2,1.8,2.4,1.3.2,2.4-.9,2.8-2.2.2-.5.3-1.3.4-1.8.4-2.8.5-4.6.3-7.5-.2-3.3-.9-6.3-2-8.9-1.1-2.5-2.8-4.1-5-4.2-2.5-.2-5.3,1.5-6.8,4.7-1.4,2.9-2.5,5.9-3.1,7.5-.7,1.6-1.7,2.5-3.2,2.7-1.9.2-3.5-1.2-4.6-3.1-1-1.7-3.1-4.9-4.1-5.9-1-1-2.2-2.3-4.6-2.2"/>
    <polygon class="st0" points="500.8 19.7 493.6 19.7 493.6 12.4 487.8 12.4 487.8 19.7 480.5 19.7 480.5 25.5 487.8 25.5 487.8 32.7 493.6 32.7 493.6 25.5 500.8 25.5 500.8 19.7"/>
  </g>
  <g>
    <text class="st1" transform="translate(71.9 38.2)"><tspan x="0" y="0">Panel de control</tspan></text>
    <rect class="st0" y="17.2" width="50.9" height="11.5"/>
  </g>
</svg>